HIERARCHY
ROOT Hips
{
	OFFSET 0.000000 88.474243 0.000000
	CHANNELS 6 Xposition Yposition Zposition Zrotation Yrotation Xrotation 
	JOINT Hips_Spine
	{
		OFFSET 0.000000 0.000000 0.000000
		CHANNELS 3 Zrotation Yrotation Xrotation
		JOINT Spine
		{
			OFFSET 0.005100 8.711998 -0.691000
			CHANNELS 3 Zrotation Yrotation Xrotation
			JOINT Spine1
			{
				OFFSET -0.009200 8.660301 -1.275000
				CHANNELS 3 Zrotation Yrotation Xrotation
				JOINT Spine2
				{
					OFFSET 0.006300 9.852501 -1.857000
					CHANNELS 3 Zrotation Yrotation Xrotation
					JOINT Spine2_Neck
					{
						OFFSET 0.000000 0.000000 0.000000
						CHANNELS 3 Zrotation Yrotation Xrotation
						JOINT Neck
						{
							OFFSET 0.016300 11.420799 -0.263300
							CHANNELS 3 Zrotation Yrotation Xrotation
							End Site #name: Head
							{
								OFFSET -0.019200 9.262405 2.362500
							}
						}
					}
					JOINT Spine2_LeftShoulder
					{
						OFFSET 0.000000 0.000000 0.000000
						CHANNELS 3 Zrotation Yrotation Xrotation
						JOINT LeftShoulder
						{
							OFFSET 5.616900 6.732201 -0.345700
							CHANNELS 3 Zrotation Yrotation Xrotation
							JOINT LeftArm
							{
								OFFSET 10.664888 -0.183372 -2.440700
								CHANNELS 3 Zrotation Yrotation Xrotation
								JOINT LeftForeArm
								{
									OFFSET 27.459126 0.000000 0.000000
									CHANNELS 3 Zrotation Yrotation Xrotation
									End Site #name: LeftHand
									{
										OFFSET 21.306858 0.000000 0.000000
									}
								}
							}
						}
					}
					JOINT Spine2_RightShoulder
					{
						OFFSET 0.000000 0.000000 0.000000
						CHANNELS 3 Zrotation Yrotation Xrotation
						JOINT RightShoulder
						{
							OFFSET -5.580300 6.737503 -0.344400
							CHANNELS 3 Zrotation Yrotation Xrotation
							JOINT RightArm
							{
								OFFSET -10.679335 -0.188484 -2.383900
								CHANNELS 3 Zrotation Yrotation Xrotation
								JOINT RightForeArm
								{
									OFFSET -27.503529 0.000000 0.000000
									CHANNELS 3 Zrotation Yrotation Xrotation
									End Site #name: RightHand
									{
										OFFSET -21.306808 0.000000 0.000000
									}
								}
							}
						}
					}
				}
			}
		}
	}
	JOINT Hips_LeftUpLeg
	{
		OFFSET 0.000000 0.000000 0.000000
		CHANNELS 3 Zrotation Yrotation Xrotation
		JOINT LeftUpLeg
		{
			OFFSET 6.857700 -6.739601 0.312100
			CHANNELS 3 Zrotation Yrotation Xrotation
			JOINT LeftLeg
			{
				OFFSET -0.367590 -34.731552 -4.572400
				CHANNELS 3 Zrotation Yrotation Xrotation
				End Site #name: LeftFoot
				{
					OFFSET 0.367590 -34.656704 -6.067400
				}
			}
		}
	}
	JOINT Hips_RightUpLeg
	{
		OFFSET 0.000000 0.000000 0.000000
		CHANNELS 3 Zrotation Yrotation Xrotation
		JOINT RightUpLeg
		{
			OFFSET -6.876100 -6.733299 0.301000
			CHANNELS 3 Zrotation Yrotation Xrotation
			JOINT RightLeg
			{
				OFFSET 0.347353 -34.795158 -4.515900
				CHANNELS 3 Zrotation Yrotation Xrotation
				End Site #name: RightFoot
				{
					OFFSET -0.347353 -34.589367 -6.070300
				}
			}
		}
	}
}
MOTION
Frames: 15
Frame Time: 0.041667
0.429211 0.636840 -2.272232 -3.181990 27.215479 -8.845715 -0.000000 0.000000 -0.000000 3.494423 -0.646987 -6.852880 2.299548 -1.231259 -2.033386 0.000000 0.000000 0.000000 2.893681 -0.974934 -2.758567 2.680171 -5.020080 -0.753904 1.989970 -1.285920 -2.265579 -24.421788 1.329695 7.125059 -46.189473 13.783756 15.183567 -0.471129 -20.380964 6.322396 1.752002 -1.051505 -0.657960 8.529901 7.573964 1.979999 62.235535 1.516094 -7.214938 0.863186 51.666910 -0.320059 0.000000 0.000000 -0.000000 -3.437697 19.700164 -6.093756 1.863050 6.517474 24.528969 0.000000 0.000000 0.000000 -3.023327 0.349149 -13.923645 3.150429 -5.715042 9.224131 
0.187661 0.629498 -2.337844 -3.873079 29.050449 -9.386135 -0.000000 0.000000 0.000000 4.280397 -0.446280 -6.937471 2.450377 -1.256573 -2.024626 0.000000 0.000000 0.000000 3.024474 -0.952747 -2.736797 2.810826 -4.940224 -0.594325 2.154100 -1.280051 -2.210141 -23.893491 1.646981 7.163980 -47.004770 14.572997 15.037704 -0.592744 -21.945093 6.210922 1.897925 -1.025512 -0.648521 8.415808 7.633421 2.041740 62.169708 1.234757 -7.041470 0.866877 52.170359 -0.308213 0.000000 -0.000000 -0.000000 -2.582780 19.899787 -5.821090 1.390309 6.249051 24.837945 0.000000 0.000000 0.000000 -2.168815 0.273440 -14.325626 3.357157 -6.165497 9.664361 
-0.025909 0.620910 -2.388223 -4.482385 30.728942 -9.879480 -0.000000 -0.000000 0.000000 4.988483 -0.275781 -6.968880 2.587538 -1.278756 -2.004649 0.000000 0.000000 0.000000 3.141099 -0.926319 -2.694413 2.934544 -4.868398 -0.391197 2.304638 -1.274074 -2.144207 -23.401319 1.899130 7.140049 -47.718415 15.233890 14.711643 -0.686415 -23.076325 6.069828 2.032684 -0.999900 -0.628912 8.364153 7.698848 2.095905 62.116781 0.925490 -6.647555 0.873623 52.723350 -0.292628 0.000000 -0.000000 -0.000000 -1.851393 19.930326 -5.136807 0.910606 5.857670 24.466555 0.000000 -0.000000 0.000000 -1.362126 0.355181 -14.729107 3.595027 -6.564548 10.064554 
-0.190674 0.606320 -2.430536 -4.954533 31.880071 -10.307021 -0.000000 -0.000000 0.000000 5.481234 -0.145964 -6.948755 2.703759 -1.302094 -1.959391 0.000000 0.000000 0.000000 3.237899 -0.904959 -2.647691 3.037980 -4.795583 -0.193437 2.434125 -1.271475 -2.072879 -22.978609 2.086099 7.118511 -48.422452 15.686850 14.331353 -0.749189 -23.974222 5.954038 2.151808 -0.983122 -0.604613 8.367073 7.762658 2.144516 62.019052 0.704440 -6.227796 0.879140 53.312288 -0.277695 0.000000 -0.000000 -0.000000 -1.239442 19.900437 -4.313234 0.376129 5.327214 23.948739 0.000000 -0.000000 0.000000 -0.649403 0.672685 -15.092700 3.959309 -6.665991 10.441712 
-0.296744 0.587000 -2.472219 -5.214143 32.198013 -10.615512 -0.000000 -0.000000 0.000000 5.891443 -0.069304 -6.833705 2.812830 -1.331616 -1.899343 0.000000 0.000000 0.000000 3.322976 -0.884099 -2.586126 3.128520 -4.723395 -0.011807 2.553460 -1.273113 -1.997110 -22.662033 2.188825 7.102841 -48.985413 16.057190 14.009708 -0.803903 -24.686748 5.891846 2.260011 -0.974432 -0.577564 8.430944 7.830845 2.186588 61.911622 0.554073 -5.803540 0.884671 53.883210 -0.264908 0.000000 -0.000000 -0.000000 -0.769553 19.812206 -3.436686 -0.133292 4.727441 23.505918 0.000000 -0.000000 0.000000 -0.073912 1.200907 -15.368014 4.289186 -6.764037 10.777549 
-0.344311 0.566492 -2.519778 -5.215072 31.645659 -10.752651 -0.000000 -0.000000 0.000000 6.188276 -0.062590 -6.695938 2.923830 -1.365601 -1.826607 0.000000 0.000000 0.000000 3.405152 -0.870324 -2.512395 3.206133 -4.658470 0.156489 2.672917 -1.277859 -1.907652 -22.424760 2.245154 7.058413 -49.463093 16.326069 13.727585 -0.850488 -25.277534 5.855767 2.361251 -0.977806 -0.556599 8.543478 7.981003 2.236017 61.801122 0.473192 -5.406881 0.892700 54.448271 -0.251622 0.000000 -0.000000 -0.000000 -0.441536 19.570680 -2.638506 -0.616200 4.129470 23.375803 0.000000 -0.000000 0.000000 0.329610 1.812133 -15.540844 4.617115 -6.839717 11.071514 
-0.331630 0.541676 -2.577199 -5.028310 30.473080 -10.765012 -0.000000 -0.000000 0.000000 6.371239 -0.166106 -6.539749 3.047032 -1.405823 -1.741850 0.000000 0.000000 0.000000 3.492101 -0.860175 -2.433603 3.245363 -4.593872 0.329729 2.801089 -1.284196 -1.796914 -22.257896 2.238214 6.979951 -49.872083 16.483836 13.567554 -0.887655 -25.734595 5.844841 2.469408 -0.987701 -0.537223 8.675577 8.205837 2.287847 61.679668 0.443283 -5.015215 0.904164 55.066015 -0.236951 0.000000 -0.000000 -0.000000 -0.259618 19.216545 -1.978491 -1.096024 3.585528 23.520836 0.000000 -0.000000 0.000000 0.601330 2.506203 -15.647857 4.924051 -6.878763 11.404368 
-0.252776 0.511494 -2.640488 -4.715420 28.802837 -10.670458 -0.000000 -0.000000 0.000000 6.490010 -0.341475 -6.385637 3.176752 -1.447538 -1.647953 0.000000 0.000000 0.000000 3.582333 -0.853189 -2.354507 3.245660 -4.523571 0.491423 2.937216 -1.291654 -1.687402 -22.161689 2.192460 6.871735 -50.210149 16.535454 13.500426 -0.919755 -26.069293 5.838997 2.581106 -1.002746 -0.519416 8.810526 8.432559 2.315237 61.561029 0.456703 -4.616945 0.917980 55.713309 -0.222301 0.000000 -0.000000 -0.000000 -0.202136 18.711299 -1.483056 -1.593898 3.138333 23.809456 0.000000 -0.000000 0.000000 0.771058 3.304606 -15.738633 5.219219 -6.830617 11.807397 
-0.105798 0.478818 -2.709014 -4.313556 26.634010 -10.484340 -0.000000 -0.000000 0.000000 6.570936 -0.547106 -6.202945 3.308041 -1.484629 -1.561084 0.000000 0.000000 0.000000 3.675485 -0.847085 -2.278164 3.208529 -4.436801 0.636573 3.077183 -1.296987 -1.587367 -22.132252 2.116938 6.751603 -50.495040 16.530528 13.483658 -0.949938 -26.302337 5.825090 2.694246 -1.019789 -0.508271 8.950382 8.650118 2.338628 61.433863 0.542752 -4.246636 0.936996 56.399896 -0.205745 0.000000 -0.000000 -0.000000 -0.186099 18.197266 -1.133987 -2.136408 2.728247 24.312625 0.000000 -0.000000 0.000000 0.846781 4.144397 -15.863628 5.476313 -6.747211 12.344570 
0.101594 0.446638 -2.781203 -3.857551 24.132084 -10.262061 -0.000000 -0.000000 0.000000 6.598499 -0.789731 -6.012827 3.440368 -1.515717 -1.495286 0.000000 0.000000 0.000000 3.768929 -0.840733 -2.207696 3.133796 -4.347647 0.773730 3.220168 -1.297854 -1.502864 -22.163565 2.022745 6.614213 -50.701229 16.490825 13.508613 -0.987507 -26.465909 5.806403 2.807878 -1.032477 -0.500673 9.058884 8.836982 2.354947 61.316259 0.696515 -3.934288 0.958462 57.087448 -0.185010 0.000000 -0.000000 -0.000000 -0.245060 17.665451 -0.879720 -2.703799 2.283613 24.861186 0.000000 -0.000000 0.000000 0.812115 4.950042 -16.066143 5.653228 -6.680456 13.038214 
0.357062 0.416618 -2.853155 -3.386523 21.568829 -10.019955 -0.000000 -0.000000 0.000000 6.559729 -1.032217 -5.793175 3.572416 -1.548255 -1.457481 0.000000 0.000000 0.000000 3.858056 -0.833848 -2.149413 3.022299 -4.250805 0.900897 3.358150 -1.301548 -1.453543 -22.261270 1.899820 6.477271 -50.836100 16.472661 13.538309 -1.051069 -26.605319 5.786810 2.921209 -1.051055 -0.504114 9.125263 9.019492 2.363013 61.207222 0.932029 -3.672841 0.984642 57.766390 -0.163098 0.000000 -0.000000 -0.000000 -0.382047 17.199754 -0.633423 -3.278085 1.840397 25.364592 0.000000 -0.000000 0.000000 0.680429 5.668750 -16.395139 5.751799 -6.623998 13.889415 
0.658606 0.387344 -2.923715 -2.926214 19.156571 -9.762194 -0.000000 -0.000000 0.000000 6.493227 -1.178299 -5.643252 3.704751 -1.585734 -1.456792 0.000000 0.000000 0.000000 3.943923 -0.831178 -2.114295 2.898056 -4.138039 1.001106 3.476547 -1.305488 -1.447628 -22.424982 1.763757 6.340484 -50.910652 16.534522 13.516938 -1.114417 -26.770412 5.725981 3.031664 -1.077686 -0.527444 9.126964 9.182227 2.360724 61.099822 1.149365 -3.546907 1.009712 58.425928 -0.143437 0.000000 -0.000000 -0.000000 -0.589374 16.708770 -0.599932 -3.711242 1.579962 26.004880 0.000000 -0.000000 0.000000 0.466246 6.219653 -16.842677 5.812212 -6.520542 14.846026 
1.003161 0.361639 -2.987649 -2.493957 16.988615 -9.497398 -0.000000 -0.000000 0.000000 6.435876 -1.264237 -5.596458 3.840650 -1.622737 -1.485659 0.000000 0.000000 0.000000 4.030283 -0.833339 -2.098150 2.761586 -4.010934 1.081672 3.593403 -1.310646 -1.484928 -22.620653 1.607141 6.199824 -50.941214 16.745380 13.427502 -1.173074 -26.970927 5.595859 3.144456 -1.112199 -0.568558 9.049203 9.345478 2.351364 61.045563 1.296658 -3.542135 1.034817 59.017165 -0.119314 0.000000 -0.000000 -0.000000 -0.943160 16.196332 -0.769755 -4.068178 1.288449 26.626170 0.000000 -0.000000 0.000000 0.173521 6.582615 -17.361156 5.854546 -6.341792 15.826963 
1.383217 0.339088 -3.043145 -2.129382 15.174598 -9.262039 -0.000000 -0.000000 0.000000 6.397122 -1.323216 -5.630992 3.981499 -1.653184 -1.537367 0.000000 0.000000 0.000000 4.120640 -0.836747 -2.096488 2.621527 -3.883282 1.156513 3.714417 -1.316704 -1.552703 -22.852780 1.426760 6.064597 -50.938588 17.119001 13.220649 -1.222780 -27.235042 5.409442 3.263247 -1.149587 -0.621240 8.905239 9.508062 2.351088 61.039705 1.313374 -3.676349 1.065031 59.539054 -0.088069 0.000000 -0.000000 -0.000000 -1.420401 15.730941 -1.067035 -4.346726 0.949792 27.288537 0.000000 -0.000000 0.000000 -0.140832 6.788967 -17.802005 5.858451 -6.097651 16.741125 
1.792063 0.321510 -3.091059 -1.868829 13.920513 -9.092992 -0.000000 -0.000000 0.000000 6.382886 -1.342761 -5.717999 4.126221 -1.674287 -1.598137 0.000000 0.000000 0.000000 4.214707 -0.833896 -2.099667 2.495609 -3.757095 1.234216 3.839831 -1.318839 -1.615373 -23.111965 1.254068 5.925287 -50.923917 17.597333 12.914142 -1.260371 -27.484556 5.196568 3.385514 -1.176361 -0.674865 8.710152 9.668520 2.360406 61.086578 1.167650 -3.907600 1.098906 59.987659 -0.046029 0.000000 -0.000000 -0.000000 -1.993262 15.248818 -1.464555 -4.425379 0.662314 27.982234 0.000000 -0.000000 0.000000 -0.460956 6.821979 -18.117896 5.837146 -5.824883 17.594542 
